<?xml version="1.0" standalone="no"?>
<!DOCTYPE svg PUBLIC "-//W3C//DTD SVG 20010904//EN"
 "http://www.w3.org/TR/2001/REC-SVG-20010904/DTD/svg10.dtd">
<svg version="1.0" xmlns="http://www.w3.org/2000/svg"
 width="260.000000pt" height="260.000000pt" viewBox="0 0 260.000000 260.000000"
 preserveAspectRatio="xMidYMid meet">
<metadata>
Created by potrace 1.14, written by Peter Selinger 2001-2017
</metadata>
<g transform="translate(0.000000,260.000000) scale(0.100000,-0.100000)"
fill="#000000" stroke="none">
<path d="M1043 2583 c0 -6 5 -9 11 -6 6 4 5 -1 -3 -10 -14 -18 -26 -23 -17 -8
4 5 -10 8 -31 7 -20 -1 -38 -7 -41 -14 -2 -7 -8 -12 -13 -12 -4 0 -6 8 -2 18
5 14 3 14 -11 -3 -10 -11 -14 -14 -10 -6 5 10 3 12 -5 7 -7 -5 -10 -14 -7 -22
3 -7 0 -16 -6 -20 -6 -4 -8 -3 -4 4 3 6 2 13 -4 17 -5 3 -10 -2 -11 -12 0 -11
-3 -13 -6 -5 -4 10 -8 9 -17 -4 -11 -15 -14 -15 -31 2 -16 16 -18 16 -13 2 4
-10 -1 -23 -13 -34 -10 -9 -19 -13 -19 -8 0 5 -7 0 -15 -10 -8 -11 -15 -15
-15 -9 0 15 25 34 35 25 5 -4 5 -1 1 6 -7 11 -11 10 -25 -2 -10 -9 -20 -13
-24 -10 -3 3 -3 -4 0 -17 4 -13 2 -20 -4 -16 -5 3 -10 0 -10 -8 0 -11 4 -12
13 -4 8 7 14 6 20 -2 4 -8 3 -9 -4 -5 -7 4 -12 2 -12 -3 0 -10 20 -15 47 -12
6 1 14 -3 18 -9 3 -5 0 -7 -8 -4 -19 7 -32 -12 -16 -22 7 -4 9 -3 6 3 -4 5 7
10 23 10 20 0 30 -5 31 -16 0 -12 3 -11 9 4 5 12 9 14 9 6 1 -8 4 -11 8 -8 3
4 17 -3 31 -15 13 -13 23 -18 22 -13 -4 20 0 35 10 35 5 0 6 -8 3 -17 -6 -16
-5 -17 12 -3 11 9 16 10 11 3 -4 -8 -2 -13 4 -13 6 0 8 -5 4 -12 -4 -6 -3 -8
4 -4 6 3 13 3 16 -2 3 -5 19 -7 37 -4 24 4 30 2 24 -8 -6 -10 -4 -12 8 -7 12
4 14 2 10 -11 -6 -15 -5 -16 12 -2 17 13 18 13 13 0 -4 -11 1 -16 15 -18 17
-1 19 1 7 8 -8 5 -10 10 -4 10 5 0 19 -7 30 -16 10 -8 13 -12 5 -8 -10 5 -12
3 -7 -5 6 -9 13 -8 28 6 15 13 19 14 16 3 -2 -8 3 -14 10 -12 8 1 11 -2 7 -8
-5 -8 -11 -7 -21 1 -8 7 -14 7 -14 1 0 -13 26 -23 44 -16 8 3 17 1 21 -5 9
-15 28 -14 19 2 -4 6 2 4 13 -6 11 -9 23 -14 28 -10 4 5 4 -2 0 -15 -7 -23 -6
-23 14 -5 12 9 21 22 21 28 0 5 -5 3 -11 -5 -9 -13 -10 -13 -6 0 4 18 24 20
52 7 17 -9 18 -8 8 4 -10 12 -8 15 8 16 11 1 17 -2 14 -8 -4 -5 -4 -9 -1 -9 3
0 10 10 17 21 9 17 8 20 -2 14 -7 -5 -10 -4 -5 3 8 13 48 12 58 -3 5 -6 8 -3
8 8 0 9 -5 17 -12 17 -6 0 -9 2 -6 5 9 10 38 -7 31 -18 -3 -6 -1 -7 5 -3 6 4
9 13 5 21 -4 11 -1 13 13 8 11 -4 15 -3 10 5 -3 6 -2 13 4 17 5 3 10 -1 10
-10 0 -9 5 -13 10 -10 6 4 8 10 6 13 -6 10 37 8 55 -3 7 -5 5 2 -6 15 l-20 23
22 -12 c16 -8 24 -8 29 1 4 6 3 8 -4 4 -6 -3 -13 -2 -16 3 -7 11 13 9 31 -2 9
-6 11 -3 6 9 -5 14 -3 15 15 5 24 -13 43 -15 24 -2 -11 7 -11 9 2 14 9 4 16 3
16 -2 0 -5 13 -8 29 -7 25 1 28 3 19 20 -8 14 -7 17 3 11 9 -6 11 -3 6 11 -7
18 -7 18 7 1 8 -11 12 -26 9 -35 -4 -12 -3 -14 5 -7 5 6 12 19 14 30 2 13 11
20 25 20 12 0 25 4 30 9 5 5 3 6 -4 2 -8 -4 -13 -1 -13 9 0 10 5 13 13 9 6 -4
9 -3 4 1 -4 5 -18 10 -30 12 -17 2 -19 1 -7 -7 8 -5 10 -10 4 -10 -18 0 -24
13 -13 27 11 12 2 18 -23 14 -5 0 -8 4 -8 11 0 9 -3 9 -12 0 -16 -16 -33 -15
-19 1 8 10 7 14 -2 15 -6 0 -21 3 -32 6 -11 2 -28 5 -38 5 -10 1 -15 6 -11 12
4 7 -4 10 -25 7 -20 -2 -35 3 -41 12 -5 8 -10 10 -10 4 0 -6 -7 -11 -15 -11
-8 0 -15 4 -15 9 0 4 5 8 12 8 6 0 9 2 6 5 -3 3 -17 1 -31 -4 -21 -8 -26 -7
-30 10 -5 20 -26 22 -39 4 -5 -6 -8 -5 -8 3 0 6 -9 12 -20 12 -14 0 -18 -5
-14 -17 5 -17 5 -17 -6 -1 -9 15 -31 17 -194 16 -139 -2 -183 -5 -183 -15z
m82 -3 c3 -5 1 -10 -4 -10 -6 0 -11 5 -11 10 0 6 2 10 4 10 3 0 8 -4 11 -10z
m40 0 c3 -5 1 -10 -4 -10 -6 0 -11 5 -11 10 0 6 2 10 4 10 3 0 8 -4 11 -10z
m332 -15 c0 -8 -4 -12 -9 -9 -5 3 -6 10 -3 15 9 13 12 11 12 -6z m-491 -17 c3
-4 -1 -5 -10 -4 -8 1 -18 5 -22 8 -3 4 1 5 10 4 8 -1 18 -5 22 -8z m684 -32
c0 -3 -4 -8 -10 -11 -5 -3 -10 -1 -10 4 0 6 5 11 10 11 6 0 10 -2 10 -4z m44
-124 c3 -5 -1 -9 -9 -9 -8 0 -12 4 -9 9 3 4 7 8 9 8 2 0 6 -4 9 -8z m-817 -17
c0 -8 -4 -12 -9 -9 -5 3 -6 10 -3 15 9 13 12 11 12 -6z m93 -35 c0 -5 -2 -10
-4 -10 -3 0 -8 5 -11 10 -3 6 -1 10 4 10 6 0 11 -4 11 -10z"/>
<path d="M796 2507 c3 -10 9 -15 12 -12 3 3 0 11 -7 18 -10 9 -11 8 -5 -6z"/>
<path d="M755 2390 c-3 -5 -1 -10 4 -10 6 0 11 5 11 10 0 6 -2 10 -4 10 -3 0
-8 -4 -11 -10z"/>
<path d="M419 2238 c15 -21 2 -24 -19 -5 -11 9 -11 8 0 -7 14 -18 13 -19 -3
-13 -11 4 -20 1 -23 -8 -4 -8 -10 -15 -16 -15 -5 0 -6 5 -2 12 4 6 3 8 -3 5
-5 -3 -8 -20 -7 -37 2 -27 0 -29 -14 -18 -9 7 -13 8 -9 2 3 -6 -3 -17 -14 -24
-10 -8 -19 -20 -19 -27 0 -7 -5 -13 -11 -13 -5 0 -7 4 -4 10 3 6 -1 7 -10 3
-12 -4 -13 -8 -5 -13 8 -5 5 -12 -11 -24 -13 -9 -19 -16 -13 -16 5 0 16 6 24
13 12 10 12 9 2 -4 -6 -9 -9 -19 -5 -23 4 -4 1 -5 -7 -2 -8 3 -20 2 -26 -2
-17 -11 -36 -51 -29 -62 3 -5 0 -12 -6 -16 -8 -5 -9 -3 -4 7 8 12 6 12 -8 0
-18 -14 -23 -26 -8 -16 5 3 12 1 16 -5 3 -5 -3 -10 -14 -10 -12 0 -21 -5 -21
-11 0 -5 4 -8 9 -5 5 4 8 -2 6 -11 -1 -11 -9 -17 -19 -15 -15 3 -16 0 -5 -20
11 -21 11 -22 -5 -9 -14 12 -16 12 -10 -4 6 -14 4 -16 -6 -10 -10 6 -11 4 -4
-6 13 -21 14 -38 2 -46 -7 -3 -8 -1 -4 5 4 7 1 12 -8 12 -10 0 -13 -6 -9 -17
4 -10 2 -14 -4 -10 -5 3 -10 0 -10 -7 0 -8 7 -12 15 -8 10 3 13 1 8 -6 -4 -7
-14 -12 -22 -12 -8 0 -12 -5 -9 -10 4 -6 11 -8 16 -5 5 3 6 -1 3 -9 -3 -8 -13
-17 -21 -20 -12 -5 -13 -4 -5 7 9 10 8 14 -3 14 -8 0 -13 -3 -10 -5 3 -3 -1
-12 -8 -20 -10 -13 -9 -14 2 -8 9 6 12 5 9 -5 -3 -8 -11 -13 -17 -11 -7 1 -6
-9 5 -29 8 -17 11 -28 6 -25 -6 4 -13 2 -17 -4 -3 -5 -1 -10 4 -10 6 0 11 -5
11 -11 0 -5 -4 -8 -9 -5 -5 3 -11 -1 -14 -9 -4 -10 -1 -12 11 -9 10 4 13 2 7
-3 -13 -10 -19 -47 -7 -39 5 3 9 -1 9 -9 0 -8 -4 -12 -9 -9 -4 3 -8 0 -8 -5 0
-6 -5 -11 -11 -11 -8 0 -8 4 0 14 9 11 9 16 0 21 -8 6 -7 10 2 17 11 8 11 9
-1 5 -13 -3 -15 -37 -18 -211 -2 -164 0 -206 10 -200 10 6 10 5 1 -7 -16 -20
-13 -98 4 -92 9 4 11 0 7 -11 -3 -9 -11 -13 -17 -9 -6 3 -7 1 -3 -6 6 -9 11
-9 21 -1 8 7 15 7 19 1 4 -5 2 -12 -4 -16 -5 -3 -10 -11 -10 -16 0 -6 5 -7 12
-3 8 5 9 2 5 -9 -4 -10 -1 -17 5 -17 7 0 3 -7 -8 -16 -10 -8 -14 -13 -7 -10
19 10 25 -11 7 -28 -8 -9 -12 -16 -7 -16 5 0 14 5 21 12 9 9 12 9 12 -1 0 -7
5 -9 12 -5 7 4 8 3 4 -5 -4 -6 -11 -9 -16 -6 -9 6 -21 -20 -13 -29 4 -3 11 -6
17 -6 6 0 4 5 -4 10 -12 7 -10 9 7 7 21 -1 22 -2 5 -21 -16 -18 -16 -19 1 -13
10 4 16 3 12 -2 -3 -5 -2 -11 2 -14 5 -2 3 -3 -2 -1 -6 1 -11 -6 -11 -16 0
-10 5 -18 10 -17 6 1 10 -7 11 -19 0 -11 8 -28 18 -38 9 -10 15 -22 12 -27 -4
-5 -1 -9 5 -9 6 0 9 -4 5 -9 -3 -5 0 -13 6 -17 8 -5 10 -2 5 7 -4 8 -1 5 8 -5
8 -10 13 -24 9 -29 -4 -6 0 -8 9 -5 8 4 22 -2 31 -13 9 -10 22 -19 29 -19 6 0
3 7 -8 15 -16 13 -16 14 -1 9 10 -4 17 -1 17 7 0 7 3 9 7 6 3 -4 12 5 20 19
17 34 17 43 -1 19 -13 -19 -14 -18 -13 8 2 19 6 26 16 22 12 -5 12 -3 0 12
-12 15 -12 16 4 10 10 -4 16 -3 12 2 -3 5 1 12 7 15 7 3 2 3 -12 0 -25 -6 -24
-5 5 21 22 19 24 23 8 16 -32 -16 -41 -13 -15 5 12 8 22 24 22 35 0 11 5 17
10 14 6 -3 10 -1 10 4 0 6 -4 11 -9 11 -5 0 -11 6 -14 13 -3 8 1 14 9 14 7 0
10 -5 7 -10 -3 -6 -1 -7 5 -3 7 4 12 14 12 22 0 10 5 12 13 8 8 -5 8 -2 -2 9
-12 16 -8 22 12 18 5 -1 6 3 2 9 -3 6 -12 8 -18 4 -7 -3 -1 4 13 15 20 17 21
20 5 14 -18 -6 -18 -5 -6 10 7 9 10 17 6 17 -4 0 -3 6 3 13 6 6 11 17 11 22 0
6 7 18 15 27 11 12 12 18 3 22 -7 4 0 4 16 2 34 -4 34 -1 0 19 l-28 15 28 -5
c25 -3 27 -2 16 11 -10 12 -10 15 1 12 7 -2 15 3 18 11 3 9 0 11 -8 6 -9 -6
-9 -3 -1 14 7 11 17 21 24 21 7 0 6 -4 -3 -10 -8 -5 -10 -10 -4 -10 10 0 26
14 36 31 1 3 -4 14 -12 24 -12 15 -12 17 -1 10 11 -6 13 -4 8 9 -5 11 -3 15 5
10 8 -5 9 -2 4 11 -6 16 -4 16 11 4 14 -12 16 -12 8 0 -6 11 -4 13 7 9 9 -4
15 0 15 8 0 9 -6 13 -15 9 -12 -5 -13 -3 -2 10 7 9 19 14 27 11 10 -4 11 -1 4
13 -7 12 -6 22 1 29 16 16 31 15 22 0 -5 -10 -3 -10 7 0 12 11 12 14 -1 22 -8
5 -18 6 -24 3 -5 -3 -6 -1 -2 6 4 6 12 9 17 6 5 -4 9 1 9 9 0 9 5 16 11 16 6
0 8 -7 5 -16 -3 -9 -2 -12 5 -8 6 3 8 15 6 26 -4 15 -1 18 16 14 12 -3 16 -3
10 0 -7 3 -13 14 -13 25 0 17 3 18 23 8 20 -11 21 -11 8 4 -13 16 -8 22 13 18
5 -1 3 6 -5 15 -9 12 -9 15 -1 10 6 -4 12 -3 12 1 0 5 -6 15 -12 22 -7 8 0 5
16 -5 l29 -18 -13 24 c-13 24 -12 24 5 10 10 -8 16 -10 12 -3 -4 7 0 17 10 23
16 10 16 11 1 6 -10 -3 -20 -1 -23 5 -4 5 -1 8 7 7 7 -2 12 2 11 8 -1 7 6 10
17 7 12 -3 20 0 20 6 0 7 -4 10 -8 7 -5 -3 -9 2 -9 10 0 8 5 13 12 11 6 -3 20
2 30 10 17 13 17 15 3 10 -10 -4 -18 -2 -18 3 0 9 15 14 33 11 4 -1 2 9 -4 21
-12 22 -11 22 7 8 10 -8 16 -10 12 -6 -4 5 0 15 9 21 14 11 15 16 5 28 -11 13
-10 15 7 10 16 -4 21 -1 21 16 0 11 4 21 10 21 5 0 7 -8 3 -17 -5 -15 -3 -15
10 2 8 10 14 29 12 41 -1 17 2 21 16 19 12 -3 16 1 12 11 -3 8 -1 14 5 14 6 0
13 -6 15 -12 4 -9 6 -10 6 -1 1 6 -6 18 -14 27 -9 9 -11 17 -5 21 5 3 10 11
10 17 0 6 -6 6 -15 -2 -9 -7 -18 -10 -22 -6 -3 3 -1 6 5 6 7 0 12 5 12 11 0 5
-5 7 -11 4 -6 -4 -9 0 -7 11 2 11 -3 19 -12 19 -9 0 -14 8 -12 20 2 16 1 17
-7 6 -8 -12 -12 -12 -25 -2 -9 7 -14 17 -11 21 6 10 -24 35 -32 26 -3 -3 -1
-6 5 -6 7 0 12 -5 12 -10 0 -6 -8 -5 -20 2 -13 8 -16 16 -10 22 6 6 10 15 10
21 0 5 -5 3 -10 -5 -9 -13 -10 -13 -10 0 0 13 -1 13 -10 0 -8 -13 -10 -12 -10
3 0 9 5 17 12 17 6 0 8 3 5 6 -4 4 -14 1 -23 -7 -16 -13 -17 -12 -12 8 4 14 2
20 -6 17 -17 -6 -76 34 -76 52 0 12 -6 15 -21 11 -17 -5 -18 -3 -7 11 8 10 9
13 1 9 -6 -4 -15 -2 -18 3 -5 8 -14 5 -28 -7 -17 -14 -19 -14 -9 -2 10 14 10
20 -3 33 -21 21 -31 21 -14 -1 13 -15 12 -15 -9 -4 -12 7 -20 16 -18 20 3 4
-1 8 -9 8 -8 0 -12 -4 -9 -8 2 -4 0 -10 -6 -14 -5 -3 -10 1 -10 10 0 8 -7 18
-15 21 -8 4 -12 11 -8 18 4 6 -1 5 -10 -3 -14 -11 -20 -11 -34 0 -16 13 -17
12 -4 -3z m61 -25 c0 -2 -6 -3 -12 -1 -7 1 -24 -4 -38 -11 l-25 -12 24 19 c21
17 51 20 51 5z m-249 -196 c-6 -8 -8 -16 -5 -19 2 -3 -2 -8 -11 -12 -11 -4
-14 -2 -9 7 11 20 26 37 31 37 3 0 0 -6 -6 -13z m654 -87 c-3 -5 -12 -10 -18
-10 -7 0 -6 4 3 10 19 12 23 12 15 0z m-795 -244 c0 -3 -4 -8 -10 -11 -5 -3
-10 -1 -10 4 0 6 5 11 10 11 6 0 10 -2 10 -4z m-26 -32 c3 -8 2 -12 -4 -9 -6
3 -10 10 -10 16 0 14 7 11 14 -7z m-34 -174 c0 -5 -5 -10 -11 -10 -5 0 -7 5
-4 10 3 6 8 10 11 10 2 0 4 -4 4 -10z m443 -284 c4 -10 1 -13 -8 -9 -8 3 -12
9 -9 14 7 12 11 11 17 -5z m-446 -113 c-4 -3 1 -12 11 -20 15 -13 15 -13 -6
-3 -19 9 -23 30 -5 30 4 0 3 -3 0 -7z m303 -183 c0 -5 -5 -10 -11 -10 -5 0 -7
5 -4 10 3 6 8 10 11 10 2 0 4 -4 4 -10z m-200 -145 c0 -8 -4 -15 -8 -15 -5 0
-9 7 -9 15 0 8 4 15 9 15 4 0 8 -7 8 -15z"/>
<path d="M2104 2235 c-4 -8 -11 -12 -17 -8 -6 3 -7 1 -3 -6 4 -6 13 -8 19 -4
7 3 3 -3 -7 -15 -11 -12 -22 -20 -25 -17 -3 4 1 10 9 15 13 8 13 10 -1 10 -9
0 -24 -9 -33 -19 -10 -11 -25 -17 -34 -14 -11 5 -13 3 -7 -8 8 -12 6 -12 -8
-1 -14 12 -16 11 -12 -7 2 -14 -1 -18 -11 -14 -7 3 -11 10 -7 17 3 6 2 7 -3 3
-5 -5 -9 -14 -9 -20 0 -5 -6 -12 -14 -15 -9 -3 -11 0 -6 8 5 9 4 11 -4 6 -6
-4 -9 -12 -6 -17 4 -5 1 -9 -5 -9 -6 0 -8 -4 -5 -10 3 -6 -1 -7 -9 -4 -9 3
-13 11 -9 17 3 6 1 7 -6 3 -9 -6 -9 -11 -1 -21 8 -10 6 -13 -7 -11 -10 0 -22
-9 -28 -21 -5 -13 -13 -23 -18 -23 -4 0 -6 4 -2 9 3 5 0 13 -7 17 -7 4 -10 4
-6 0 3 -4 2 -21 -4 -37 -8 -24 -14 -28 -30 -23 -14 4 -18 2 -14 -5 4 -6 0 -11
-11 -12 -10 0 -13 -3 -6 -5 7 -3 0 -16 -20 -34 -20 -18 -36 -25 -41 -19 -6 5
-15 9 -20 9 -6 0 -4 -5 4 -10 13 -8 13 -11 1 -22 -11 -11 -13 -11 -6 1 6 10 4
12 -4 7 -9 -6 -9 -13 3 -31 14 -22 14 -22 -14 -20 -37 3 -34 -20 8 -45 36 -22
44 -37 10 -19 -21 11 -22 11 -9 -4 7 -10 20 -17 28 -17 8 0 11 -4 8 -10 -3 -5
-2 -10 4 -10 5 0 11 3 14 8 2 4 2 2 1 -5 -3 -12 20 -36 27 -28 3 2 4 -9 3 -25
-1 -20 3 -30 12 -30 8 0 11 7 8 18 -5 14 -4 14 4 2 6 -8 8 -19 4 -25 -10 -16
-11 -36 -1 -29 5 3 7 9 4 14 -3 4 5 6 17 2 12 -3 17 -7 10 -10 -6 -2 -12 -8
-12 -13 0 -6 6 -7 13 -3 9 6 9 5 0 -8 -17 -19 -4 -32 15 -15 13 9 14 9 8 0 -4
-8 -2 -13 6 -13 9 0 9 -3 -2 -10 -13 -8 -13 -10 2 -10 12 0 15 -6 10 -22 -5
-22 -5 -22 12 -5 21 21 33 23 16 2 -10 -12 -10 -15 0 -15 7 0 10 -7 6 -15 -3
-8 3 -19 12 -25 12 -8 14 -13 5 -16 -7 -3 -13 -10 -13 -15 0 -6 6 -7 13 -2 21
13 35 12 41 -4 3 -7 2 -12 -2 -9 -4 2 -8 -4 -8 -15 0 -10 6 -19 14 -19 7 0 10
5 6 12 -4 7 -3 8 4 4 7 -4 12 -14 12 -23 0 -8 14 -28 31 -43 20 -17 28 -30 21
-34 -15 -9 -4 -36 15 -36 10 0 14 -7 10 -20 -3 -11 -1 -20 3 -20 5 0 11 8 13
18 4 13 5 12 6 -5 0 -12 6 -25 11 -28 6 -3 10 -11 10 -18 0 -6 -7 -2 -16 9
-15 18 -15 18 -5 -2 6 -12 7 -25 3 -29 -4 -4 4 -4 16 0 21 6 23 5 13 -13 -12
-23 -5 -33 16 -25 13 5 13 2 4 -14 -8 -17 -7 -22 4 -27 8 -3 14 -11 13 -18 -2
-8 5 -12 16 -10 13 2 16 0 10 -10 -14 -21 -13 -35 2 -35 11 0 11 3 1 16 -11
14 -10 14 6 2 17 -13 17 -16 4 -26 -13 -10 -13 -13 6 -25 20 -12 21 -12 8 3
-9 11 -10 17 -2 17 11 0 15 -13 12 -39 -2 -7 3 -10 9 -6 6 4 9 1 8 -7 -2 -7
-10 -16 -18 -20 -12 -5 -12 -7 2 -7 11 -1 15 -6 11 -16 -3 -9 -2 -15 3 -14 19
3 34 -1 34 -11 0 -5 -8 -7 -17 -4 -17 5 -17 5 -1 -9 10 -7 19 -28 20 -46 2
-23 6 -30 17 -26 11 4 12 3 1 -10 -7 -8 -9 -15 -5 -15 4 0 1 -8 -6 -18 -11
-14 -11 -15 1 -5 21 19 35 16 19 -4 -8 -9 -9 -14 -3 -10 7 4 14 -2 17 -14 5
-17 3 -18 -11 -7 -9 7 -7 1 6 -13 12 -14 19 -29 15 -33 -10 -10 -13 -66 -3
-66 4 0 6 13 5 30 -1 16 1 28 5 25 4 -3 6 -19 5 -35 -2 -25 1 -30 14 -26 14 5
14 5 1 -6 -14 -12 -14 -15 2 -30 10 -10 18 -13 18 -7 0 8 6 7 18 -2 15 -13 16
-12 3 4 -14 18 -8 22 29 18 13 -2 13 -1 0 8 -8 5 -17 8 -21 5 -4 -2 -11 1 -15
7 -4 7 -3 9 4 5 6 -3 14 -2 17 4 5 8 12 7 23 -2 14 -12 14 -10 2 12 -12 22
-12 24 3 12 13 -11 15 -10 10 9 -5 17 -3 20 8 14 8 -5 5 2 -6 16 -14 16 -15
20 -3 11 13 -11 21 -11 35 -2 16 10 16 11 1 6 -10 -3 -20 -1 -23 4 -4 6 -1 11
4 11 6 1 15 2 20 3 5 0 13 5 18 10 4 5 3 6 -4 2 -6 -3 -14 -2 -18 4 -3 5 1 10
9 10 8 0 18 5 22 12 4 7 3 8 -4 4 -19 -12 -14 15 6 30 16 13 16 14 -3 7 -17
-6 -18 -4 -8 9 7 8 9 19 5 24 -4 4 1 2 11 -5 15 -12 17 -12 11 4 -5 13 -4 16
5 10 10 -6 11 -3 2 14 -7 11 -8 21 -3 21 6 0 12 9 15 20 3 11 2 18 -2 15 -17
-10 -4 46 14 63 19 17 19 17 1 -5 -15 -18 -16 -23 -5 -23 11 0 11 -2 -1 -11
-12 -8 -12 -10 -1 -7 8 2 15 11 17 19 5 31 9 44 19 52 6 5 3 7 -7 4 -12 -4
-16 0 -15 13 1 10 4 17 8 14 4 -2 10 0 14 6 3 5 1 10 -6 10 -8 0 -7 5 2 17 10
11 10 14 2 9 -7 -4 -13 -2 -13 3 0 6 6 11 13 11 8 0 7 4 -3 10 -10 6 -11 10
-2 10 6 0 12 5 12 11 0 5 -5 7 -12 3 -6 -4 -8 -3 -4 4 3 6 16 9 28 7 11 -3 17
-1 14 3 -4 4 -12 8 -17 8 -5 1 -13 2 -17 3 -5 0 -9 8 -9 16 0 11 4 12 11 5 5
-5 14 -10 19 -10 5 0 1 7 -8 17 -16 15 -15 17 5 28 21 11 21 12 4 19 -18 7
-18 8 0 22 11 8 15 14 8 14 -7 0 -9 7 -5 18 3 9 3 14 -1 10 -4 -3 -9 -14 -10
-25 -2 -10 -6 -17 -9 -15 -4 1 -10 2 -13 2 -4 0 -1 7 6 14 11 15 12 91 1 111
-10 18 -9 35 1 41 6 4 5 9 -3 14 -10 7 -10 11 0 24 11 13 11 16 0 16 -11 0
-11 2 1 10 10 6 11 10 3 10 -7 0 -13 6 -13 14 0 8 6 17 13 19 7 3 4 6 -6 6
-12 1 -15 5 -11 13 11 17 13 48 3 42 -4 -2 -10 0 -14 6 -4 6 -10 8 -15 5 -10
-6 -8 15 3 32 4 7 3 22 -3 33 -6 11 -9 24 -6 28 2 4 -5 19 -16 32 -16 21 -19
22 -13 5 5 -17 4 -18 -7 -7 -11 11 -10 16 5 26 16 12 16 14 2 20 -11 4 -14 2
-9 -7 5 -8 2 -7 -9 2 -18 14 -23 26 -8 17 5 -3 11 1 14 9 4 9 1 12 -9 8 -10
-4 -12 0 -7 13 5 13 3 15 -8 9 -12 -8 -12 -6 0 8 12 15 9 21 -11 18 -5 0 -8 6
-8 15 0 9 -5 12 -12 8 -9 -5 -9 -2 1 9 9 11 10 17 2 17 -6 0 -11 5 -11 11 0 5
6 7 13 3 8 -6 8 -3 -1 9 -8 9 -19 15 -25 14 -7 -1 -11 4 -10 11 2 6 -2 12 -8
12 -8 0 -7 6 2 17 10 11 10 14 2 9 -8 -4 -13 -2 -13 4 0 6 -4 8 -10 5 -5 -3
-10 0 -10 8 0 8 -7 18 -16 21 -12 5 -14 10 -5 20 11 14 5 26 -13 26 -6 0 -4
-5 4 -10 12 -7 11 -9 -6 -8 -20 2 -30 28 -11 28 6 0 3 8 -6 18 -10 10 -14 22
-10 27 5 4 2 5 -4 1 -7 -4 -13 -3 -13 2 0 6 -8 13 -17 17 -12 4 -7 -5 12 -26
17 -18 23 -28 14 -21 -9 6 -20 8 -24 4 -5 -4 -5 -2 -2 4 4 7 0 17 -9 24 -8 7
-12 20 -9 28 4 12 3 12 -9 3 -11 -10 -14 -9 -12 1 1 7 6 20 11 28 5 9 -1 7
-14 -4 -18 -17 -21 -17 -15 -3 7 20 -6 22 -25 5 -11 -10 -13 -10 -7 0 4 6 2
12 -3 12 -6 0 -11 5 -11 10 0 6 7 10 16 10 9 0 12 -5 8 -12 -5 -7 -3 -8 5 -3
9 5 10 10 2 18 -9 9 -17 8 -31 -1 -24 -15 -40 -15 -40 -1 0 5 5 7 12 3 7 -4 8
-3 4 4 -10 16 -15 15 -22 -3z m-434 -385 c0 -5 -7 -7 -15 -4 -8 4 -12 10 -9
15 6 11 24 2 24 -11z m850 -190 c0 -5 -2 -10 -4 -10 -3 0 -8 5 -11 10 -3 6 -1
10 4 10 6 0 11 -4 11 -10z m17 -66 c-3 -3 -12 -4 -19 -1 -8 3 -5 6 6 6 11 1
17 -2 13 -5z m38 -354 c3 -5 2 -10 -4 -10 -5 0 -13 5 -16 10 -3 6 -2 10 4 10
5 0 13 -4 16 -10z m-278 -416 c-3 -3 -12 -4 -19 -1 -8 3 -5 6 6 6 11 1 17 -2
13 -5z m53 -204 c0 -5 -2 -10 -4 -10 -3 0 -8 5 -11 10 -3 6 -1 10 4 10 6 0 11
-4 11 -10z"/>
<path d="M1255 2221 c-6 -11 13 -26 22 -17 4 3 1 6 -6 6 -7 0 -9 5 -6 10 3 6
4 10 1 10 -3 0 -7 -4 -11 -9z"/>
<path d="M1994 2198 c-4 -7 -4 -10 1 -6 4 4 14 3 21 -3 9 -7 14 -6 20 3 4 7 4
10 -1 6 -4 -4 -14 -3 -21 3 -9 7 -14 6 -20 -3z"/>
<path d="M665 2120 c3 -5 8 -10 11 -10 2 0 4 5 4 10 0 6 -5 10 -11 10 -5 0 -7
-4 -4 -10z"/>
<path d="M1790 2029 c0 -5 5 -7 10 -4 6 3 10 8 10 11 0 2 -4 4 -10 4 -5 0 -10
-5 -10 -11z"/>
<path d="M1720 1969 c0 -5 -4 -8 -8 -5 -5 3 -9 -1 -9 -9 0 -13 4 -12 19 2 21
18 22 23 8 23 -5 0 -10 -5 -10 -11z"/>
<path d="M1635 1900 c-3 -5 -1 -10 4 -10 6 0 11 5 11 10 0 6 -2 10 -4 10 -3 0
-8 -4 -11 -10z"/>
<path d="M1716 1742 c-3 -5 1 -9 9 -9 8 0 12 4 9 9 -3 4 -7 8 -9 8 -2 0 -6 -4
-9 -8z"/>
<path d="M2527 1629 c7 -7 15 -10 18 -7 3 3 -2 9 -12 12 -14 6 -15 5 -6 -5z"/>
<path d="M1277 1544 c-11 -12 -8 -26 5 -18 7 5 8 3 3 -5 -5 -9 -10 -10 -18 -2
-8 8 -15 5 -25 -11 l-13 -23 5 25 c3 14 3 20 0 13 -3 -7 -13 -9 -22 -6 -15 4
-15 3 -2 -6 8 -6 11 -11 6 -11 -5 0 -2 -8 5 -17 11 -14 9 -14 -9 1 -23 20 -23
20 -16 0 7 -16 6 -17 -8 -6 -10 8 -19 9 -22 3 -4 -5 -2 -13 4 -16 8 -5 7 -11
-1 -21 -6 -7 -16 -11 -22 -7 -6 4 -8 0 -4 -10 5 -13 2 -15 -18 -7 -19 7 -23 6
-18 -5 3 -8 10 -12 16 -8 6 3 7 1 3 -6 -6 -8 -12 -9 -20 -2 -10 8 -21 2 -42
-22 -16 -17 -28 -36 -26 -41 2 -5 -4 -4 -12 3 -13 11 -14 8 -11 -21 2 -18 1
-27 -2 -20 -4 10 -8 10 -21 0 -13 -11 -14 -11 -7 1 6 10 4 12 -4 7 -7 -5 -10
-15 -7 -23 4 -11 2 -13 -9 -10 -18 7 -30 -9 -14 -19 8 -5 9 -3 4 6 -5 9 -4 11
4 6 6 -4 9 -12 5 -17 -3 -5 -10 -7 -15 -4 -5 4 -9 1 -9 -5 0 -6 -4 -9 -9 -6
-11 7 -61 -42 -61 -60 0 -8 -8 -11 -21 -9 -17 3 -19 2 -9 -10 10 -12 9 -16 -4
-21 -9 -3 -13 -11 -9 -18 4 -6 -2 -4 -12 4 -15 12 -17 12 -10 1 6 -11 4 -13
-7 -9 -11 5 -14 0 -11 -20 3 -18 2 -23 -4 -14 -7 10 -14 8 -29 -9 -21 -24 -22
-28 -2 -41 9 -6 6 -7 -10 -3 -12 4 -22 3 -21 -2 4 -16 -13 -43 -24 -36 -6 4
-8 0 -4 -10 7 -18 -17 -42 -33 -32 -5 3 -10 1 -10 -5 0 -6 -5 -8 -12 -4 -7 4
-8 3 -4 -4 4 -6 13 -9 21 -5 8 3 15 2 15 -1 0 -4 -12 -11 -26 -16 -14 -6 -28
-19 -31 -29 -3 -10 -14 -24 -26 -30 -21 -11 -21 -11 3 -5 24 6 24 6 5 -9 -11
-8 -23 -13 -27 -11 -4 2 -10 -1 -14 -7 -5 -8 -3 -9 6 -4 10 6 12 4 7 -7 -3 -9
-1 -21 4 -27 5 -6 6 -9 2 -6 -3 3 -16 -3 -27 -12 -15 -14 -18 -14 -8 -2 6 9 8
20 4 24 -4 5 -1 5 7 0 10 -5 12 -4 7 4 -4 6 -12 9 -17 5 -5 -3 -7 -9 -4 -14 3
-5 1 -11 -5 -15 -7 -4 -6 -14 2 -28 10 -20 10 -21 -6 -8 -9 8 -19 11 -23 7 -3
-3 -2 -6 4 -6 6 0 13 -7 16 -14 4 -10 1 -13 -7 -10 -27 10 -55 -56 -35 -81 5
-7 0 -11 -12 -12 -12 -1 -17 3 -13 9 4 6 3 8 -3 5 -5 -3 -8 -20 -7 -37 2 -27
0 -29 -14 -18 -15 11 -14 10 1 -14 14 -23 14 -26 2 -22 -10 4 -13 2 -10 -8 3
-7 -4 -24 -15 -36 -13 -14 -16 -22 -8 -22 9 0 9 -3 -2 -10 -12 -8 -12 -10 5
-10 16 0 17 -2 5 -10 -8 -5 -15 -24 -15 -44 -1 -19 3 -32 7 -30 4 3 8 -2 8
-11 0 -10 5 -13 12 -9 7 5 9 1 6 -13 -6 -21 6 -25 31 -9 10 7 12 3 6 -15 -7
-22 -6 -23 9 -10 15 12 17 12 14 0 -2 -8 3 -13 10 -12 6 2 12 -4 12 -12 0 -9
-6 -12 -17 -8 -10 3 -15 3 -11 -2 4 -4 18 -9 30 -10 13 -1 27 -3 32 -4 5 0 4
-7 -3 -14 -8 -11 -5 -13 19 -9 29 4 35 -4 32 -39 -1 -3 13 -3 30 -1 19 3 29 1
25 -6 -4 -5 3 -12 14 -15 13 -4 18 -10 14 -17 -5 -9 0 -8 16 1 21 11 22 10 12
-3 -16 -18 -5 -32 14 -17 10 9 13 8 13 -1 0 -8 9 -11 24 -8 17 3 23 1 19 -8
-2 -7 -11 -10 -19 -7 -8 3 -14 1 -14 -5 0 -6 8 -9 18 -8 9 2 28 -4 42 -12 l25
-14 -25 21 -25 22 25 -12 c14 -7 28 -17 32 -23 5 -7 8 -7 8 2 0 7 5 10 10 7 6
-3 10 -1 10 6 0 7 3 9 6 6 4 -4 1 -13 -6 -22 -7 -9 -10 -18 -6 -22 3 -3 6 -1
6 5 0 7 7 12 15 12 8 0 15 -5 15 -11 0 -5 -5 -7 -12 -3 -7 4 -8 3 -4 -4 4 -6
13 -9 21 -5 9 3 15 -1 15 -8 0 -11 3 -11 11 1 8 12 12 12 16 2 4 -10 9 -9 19
5 11 14 13 14 9 2 -4 -10 0 -16 10 -16 8 0 15 5 15 11 0 6 4 4 10 -4 6 -9 5
-20 -3 -30 -11 -13 -10 -13 6 -1 13 11 17 11 17 1 0 -8 3 -10 6 -7 4 4 1 13
-6 22 -7 9 -10 18 -6 22 3 3 6 1 6 -5 0 -7 5 -12 11 -12 5 0 8 4 5 9 -3 4 10
1 28 -8 18 -9 30 -17 25 -19 -4 -2 -17 2 -28 8 -13 6 -21 7 -21 1 0 -17 32
-20 260 -19 229 1 263 4 238 19 -11 7 -10 10 1 21 11 11 13 11 6 0 -5 -10 -1
-13 16 -10 13 2 27 8 31 13 5 6 8 4 8 -5 0 -13 1 -13 10 0 8 12 13 13 29 3 18
-11 19 -10 14 5 -6 15 -5 16 12 2 15 -12 17 -12 10 -1 -6 11 -4 13 11 8 18 -7
18 -6 -1 9 -15 13 -16 15 -3 11 9 -3 22 1 28 8 8 10 18 12 29 6 23 -12 85 15
77 35 -3 8 -2 12 3 9 5 -3 12 -1 15 4 4 6 19 6 39 0 l32 -9 -25 20 -25 20 28
-10 c22 -8 27 -7 27 6 0 9 -5 12 -12 8 -7 -4 -8 -3 -4 4 5 9 13 9 27 1 12 -6
23 -8 27 -5 3 3 0 6 -5 6 -13 0 -11 25 2 37 4 4 5 3 2 -3 -4 -7 0 -17 8 -24
13 -11 14 -10 8 5 -5 15 -3 17 12 12 14 -6 15 -5 7 6 -8 10 -6 13 9 14 13 1
17 -2 12 -10 -4 -7 7 1 25 18 37 35 40 40 13 25 -11 -5 -23 -10 -28 -10 -4 1
3 7 16 14 27 15 55 11 44 -7 -3 -6 -1 -7 6 -3 9 6 9 11 0 22 -9 11 -8 14 6 14
14 0 15 3 5 15 -11 13 -10 14 2 10 9 -4 18 0 21 9 4 10 13 13 23 9 11 -4 15
-3 11 4 -4 6 -2 13 5 15 6 2 12 12 14 21 1 9 -1 15 -5 12 -4 -2 -8 3 -8 11 0
8 6 13 13 10 8 -3 11 0 7 9 -3 8 -9 13 -13 10 -7 -4 -6 24 0 33 7 7 4 48 -3
53 -4 3 -9 16 -10 28 -1 13 -6 20 -14 17 -7 -3 -15 0 -19 6 -4 7 -3 8 4 4 7
-4 12 -2 12 4 0 6 5 8 10 5 6 -3 10 -1 10 5 0 7 -6 10 -13 7 -8 -3 -20 -1 -28
4 -11 7 -10 9 6 9 14 0 16 3 7 9 -7 4 -12 12 -11 17 4 20 -2 26 -15 15 -12
-10 -13 -8 -9 8 3 12 1 21 -5 21 -5 0 -13 7 -16 16 -3 8 -2 12 3 9 14 -8 21 9
10 25 -6 10 -9 11 -9 3 0 -7 -5 -13 -11 -13 -5 0 -7 5 -4 10 3 6 -4 10 -16 10
-21 0 -22 1 -5 13 17 12 17 14 -1 28 -16 13 -17 13 -4 -3 7 -10 9 -18 3 -18
-15 0 -22 26 -10 38 7 7 2 16 -16 28 -16 10 -25 23 -22 31 3 8 1 11 -4 8 -6
-3 -10 -1 -10 6 0 8 -4 8 -15 -1 -13 -11 -14 -10 -9 5 6 14 4 16 -6 10 -8 -5
-11 -4 -6 3 3 5 3 12 -1 15 -5 2 -2 2 5 1 6 -2 12 1 12 6 0 6 -9 10 -20 10
-18 0 -25 10 -21 33 0 4 -4 7 -10 7 -5 0 -7 5 -4 10 3 6 0 10 -8 10 -8 0 -17
9 -20 20 -3 11 -13 20 -24 20 -15 0 -16 2 -3 11 12 9 10 10 -9 5 -17 -3 -21
-2 -13 6 6 6 8 17 5 25 -4 11 -8 10 -19 -4 -12 -17 -13 -17 -10 3 3 11 0 27
-6 35 -8 11 -9 10 -4 -3 3 -10 1 -18 -4 -18 -6 0 -11 7 -11 15 -3 32 -4 36
-19 45 -8 5 -17 7 -22 4 -4 -3 -15 7 -24 21 -9 14 -21 22 -28 18 -7 -4 -6 -1
1 9 16 19 4 32 -15 15 -13 -10 -14 -8 -8 11 4 12 4 22 -1 21 -24 -4 -35 4 -44
31 -6 17 -16 30 -21 30 -6 0 -4 -8 3 -17 13 -17 0 -9 -41 26 -3 2 3 1 13 -2
11 -4 16 -3 12 3 -3 6 -13 10 -21 10 -8 0 -12 5 -9 10 6 9 -8 15 -29 11 -5 -1
-3 5 4 14 11 13 10 14 -5 9 -13 -5 -16 -4 -11 4 4 7 2 12 -5 12 -7 0 -9 3 -6
7 8 7 -52 38 -66 34 -5 -1 -6 3 -2 9 5 8 11 8 20 0 8 -7 15 -7 19 -1 8 13 -3
18 -35 16 -21 -1 -25 2 -23 21 1 15 -2 21 -11 18 -7 -3 -16 0 -20 5 -3 6 -11
9 -16 6 -5 -4 -9 -1 -9 4 0 6 -5 10 -11 9 -6 -2 -14 4 -16 12 -4 13 -3 13 6 0
8 -11 11 -11 11 -2 0 7 -7 15 -15 18 -8 4 -12 11 -8 17 3 6 1 7 -5 3 -6 -4 -9
-14 -6 -24 3 -9 -1 -7 -8 6 -8 12 -17 19 -21 16z m123 -88 c0 -2 -8 -10 -17
-17 -16 -13 -17 -12 -4 4 13 16 21 21 21 13z m-303 -69 c0 -8 -6 -14 -14 -14
-9 0 -10 4 -2 14 6 7 12 13 14 13 1 0 2 -6 2 -13z m373 -7 c0 -5 -5 -10 -11
-10 -5 0 -7 5 -4 10 3 6 8 10 11 10 2 0 4 -4 4 -10z m-548 -167 c-6 -2 -9 -10
-6 -15 4 -7 2 -8 -5 -4 -13 9 -5 26 12 25 9 0 8 -2 -1 -6z m838 -98 c0 -2 -9
-3 -19 -2 -11 0 -18 5 -15 9 4 6 34 0 34 -7z m97 -130 c0 -8 -4 -12 -9 -9 -5
3 -6 10 -3 15 9 13 12 11 12 -6z m-1221 -105 c0 -12 -4 -16 -9 -11 -5 5 -6 14
-3 20 10 15 12 14 12 -9z m1378 -78 c2 -4 -4 -8 -15 -8 -10 0 -19 4 -19 8 0
10 27 10 34 0z m-1498 -114 c4 -7 3 -8 -4 -4 -7 4 -12 2 -12 -3 0 -6 -5 -11
-11 -11 -8 0 -8 5 1 15 15 18 17 18 26 3z m-79 -210 c-3 -8 -6 -5 -6 6 -1 11
2 17 5 13 3 -3 4 -12 1 -19z m188 -268 c-3 -5 -12 -10 -18 -10 -7 0 -6 4 3 10
19 12 23 12 15 0z m305 -146 c0 -8 -19 -13 -24 -6 -3 5 1 9 9 9 8 0 15 -2 15
-3z m587 -21 c-4 -3 -2 -12 4 -20 7 -8 8 -13 1 -13 -12 0 -23 26 -15 34 4 3 9
6 11 6 3 0 2 -3 -1 -7z m-22 -23 c3 -6 -1 -7 -9 -4 -18 7 -21 14 -7 14 6 0 13
-4 16 -10z"/>
<path d="M1350 1510 c0 -5 5 -10 11 -10 5 0 7 5 4 10 -3 6 -8 10 -11 10 -2 0
-4 -4 -4 -10z"/>
<path d="M1146 1448 c3 -5 10 -6 15 -3 13 9 11 12 -6 12 -8 0 -12 -4 -9 -9z"/>
<path d="M2563 1414 c0 -7 6 -10 14 -7 7 3 13 8 13 12 0 4 -6 8 -13 8 -8 0
-14 -6 -14 -13z"/>
<path d="M1974 1373 c2 -9 12 -17 24 -18 28 -2 27 -1 -2 18 -22 15 -24 15 -22
0z"/>
<path d="M2577 1369 c7 -7 15 -10 18 -7 3 3 -2 9 -12 12 -14 6 -15 5 -6 -5z"/>
<path d="M2580 1341 c0 -6 4 -13 10 -16 6 -3 7 1 4 9 -7 18 -14 21 -14 7z"/>
<path d="M1623 1255 c0 -8 4 -12 9 -9 5 3 6 10 3 15 -9 13 -12 11 -12 -6z"/>
<path d="M1710 1160 c0 -5 5 -10 10 -10 6 0 10 5 10 10 0 6 -4 10 -10 10 -5 0
-10 -4 -10 -10z"/>
<path d="M390 1035 c-7 -8 -9 -15 -5 -15 4 0 2 -6 -4 -14 -9 -11 -8 -15 4 -20
10 -4 14 -2 9 5 -4 6 0 15 7 20 12 7 12 9 0 9 -11 0 -11 3 -1 15 7 8 10 15 7
15 -2 0 -10 -7 -17 -15z"/>
<path d="M666 958 c3 -5 10 -6 15 -3 13 9 11 12 -6 12 -8 0 -12 -4 -9 -9z"/>
<path d="M396 513 c-6 -14 -5 -15 5 -6 7 7 10 15 7 18 -3 3 -9 -2 -12 -12z"/>
<path d="M2116 315 c-9 -26 -7 -32 5 -12 6 10 9 21 6 23 -2 3 -7 -2 -11 -11z"/>
<path d="M1836 132 c-3 -5 1 -9 9 -9 8 0 12 4 9 9 -3 4 -7 8 -9 8 -2 0 -6 -4
-9 -8z"/>
<path d="M1715 80 c-3 -5 -1 -10 4 -10 6 0 11 5 11 10 0 6 -2 10 -4 10 -3 0
-8 -4 -11 -10z"/>
</g>
</svg>
